<svg xmlns="http://www.w3.org/2000/svg" viewBox="0 0 800 500" width="800" height="500">
  <defs>
    <linearGradient id="bg" x1="0" x2="1" y1="0" y2="1">
      <stop offset="0%" stop-color="#1729c5"/>
      <stop offset="100%" stop-color="#2820bd"/>
    </linearGradient>
    <linearGradient id="card" x1="0" x2="0" y1="0" y2="1">
      <stop offset="0%" stop-color="#0f1a3a"/>
      <stop offset="100%" stop-color="#070d1f"/>
    </linearGradient>
  </defs>
  <rect width="800" height="500" fill="url(#bg)"/>
  <rect x="40" y="40" width="720" height="420" rx="16" fill="url(#card)" stroke="#3b4ad1" stroke-width="1.5"/>
  <circle cx="78" cy="80" r="6" fill="#ff5f57"/>
  <circle cx="100" cy="80" r="6" fill="#febc2e"/>
  <circle cx="122" cy="80" r="6" fill="#28c840"/>
  <text x="160" y="86" font-family="Inter, system-ui, sans-serif" font-size="14" fill="#9aa3c7">nubotik.com / dashboard</text>
  <rect x="60" y="120" width="180" height="80" rx="10" fill="#162149"/>
  <text x="78" y="148" font-family="Inter, system-ui, sans-serif" font-size="12" fill="#9aa3c7">EN COLA</text>
  <text x="78" y="184" font-family="Inter, system-ui, sans-serif" font-size="32" font-weight="700" fill="#ffffff">24</text>
  <rect x="260" y="120" width="180" height="80" rx="10" fill="#162149"/>
  <text x="278" y="148" font-family="Inter, system-ui, sans-serif" font-size="12" fill="#9aa3c7">ATENDIDOS HOY</text>
  <text x="278" y="184" font-family="Inter, system-ui, sans-serif" font-size="32" font-weight="700" fill="#34d399">187</text>
  <rect x="460" y="120" width="280" height="80" rx="10" fill="#162149"/>
  <text x="478" y="148" font-family="Inter, system-ui, sans-serif" font-size="12" fill="#9aa3c7">ESPERA PROMEDIO</text>
  <text x="478" y="184" font-family="Inter, system-ui, sans-serif" font-size="32" font-weight="700" fill="#f272c8">12 min</text>
  <rect x="60" y="220" width="680" height="200" rx="10" fill="#162149"/>
  <polyline points="80,380 160,340 240,360 320,300 400,320 480,260 560,280 640,220 720,240" fill="none" stroke="#34d399" stroke-width="3"/>
  <polyline points="80,400 160,380 240,390 320,360 400,370 480,340 560,350 640,310 720,330" fill="none" stroke="#f272c8" stroke-width="3" stroke-dasharray="4 4"/>
  <text x="78" y="248" font-family="Inter, system-ui, sans-serif" font-size="12" fill="#9aa3c7">FLUJO DE CLIENTES (ÚLTIMOS 7 DÍAS)</text>
  <text x="400" y="470" text-anchor="middle" font-family="Inter, system-ui, sans-serif" font-size="13" fill="#9aa3c7" opacity="0.7">Vista previa — visitá nubotik.com para la demo real</text>
</svg>
