<svg width="64" height="64" viewBox="-20 0 190 190" fill="none" xmlns="http://www.w3.org/2000/svg">
    <path fill-rule="evenodd" clip-rule="evenodd"
        d="M129.83 114c-35.78 37-93.26 24.48-107.49 5.4a67.08 67.08 0 018.79-15.74L19.37 92.85l5.47-5.8 11.25 10.84A53.583 53.583 0 0147.48 89l-9.36-15.81 7.06-4 9.16 16.5a50.42 50.42 0 0115.15-3.4l.19-18.18h7.89L77 82.33c5.6.438 11.11 1.674 16.36 3.67L102 68.12l6.89 3-8 18.14a80.164 80.164 0 0112.63 8.22L124 83.92l6.67 5.36-11.06 13.53A107.327 107.327 0 01129.83 114zm-84.91-13.54a58.8 58.8 0 00-10.46 11.61l2.28 9.42a65.702 65.702 0 0017.12 7.7c-8.2-7.09-11.08-18.45-8.94-28.73zm44.2-7.94c-10.73-3.58-21.43-3.54-31.19.21-12.12 12.15-7.39 38.08 16.32 38.08 21.75 0 26.89-26.23 14.87-38.29zm12.5 5.84c2.57 9.75.6 20.85-5.84 28.49a101.579 101.579 0 0024.16-13.36 85.763 85.763 0 00-18.32-15.13zM74 122.71c-19.17 0-18.3-27.39-.31-27.39 17.99 0 17.77 27.39.31 27.39z"
        fill="#ffffff" />
</svg>